<svg xmlns="http://www.w3.org/2000/svg" width="1200" height="500"><path d="M257,635L194,636L341,635Z" fill="#6b7a8c" stroke="#6b7a8c" stroke-width="1.51"/><path d="M97,-135L252,-123L387,-127Z" fill="#ddf1c2" stroke="#ddf1c2" stroke-width="1.51"/><path d="M97,-135L387,-127L495,-138Z" fill="#cfecc5" stroke="#cfecc5" stroke-width="1.51"/><path d="M652,-131L756,-129L946,-131Z" fill="#a3c6ca" stroke="#a3c6ca" stroke-width="1.51"/><path d="M495,-138L652,-131L946,-131Z" fill="#a7d0cb" stroke="#a7d0cb" stroke-width="1.51"/><path d="M1097,615L924,615L1133,627Z" fill="#1b3985" stroke="#1b3985" stroke-width="1.51"/><path d="M924,615L742,635L1133,627Z" fill="#1c4589" stroke="#1c4589" stroke-width="1.51"/><path d="M1080,-99L1143,-89L1246,-109Z" fill="#9a93b0" stroke="#9a93b0" stroke-width="1.51"/><path d="M1267,594L1133,627L1325,621Z" fill="#172875" stroke="#172875" stroke-width="1.51"/><path d="M1320,535L1267,594L1325,621Z" fill="#162874" stroke="#162874" stroke-width="1.51"/><path d="M495,-138L946,-131L1327,-138Z" fill="#a0b2c2" stroke="#a0b2c2" stroke-width="1.51"/><path d="M1080,-99L1246,-109L1327,-138Z" fill="#968eaa" stroke="#968eaa" stroke-width="1.51"/><path d="M971,-123L1080,-99L1327,-138Z" fill="#9c97b5" stroke="#9c97b5" stroke-width="1.51"/><path d="M946,-131L971,-123L1327,-138Z" fill="#9d9db9" stroke="#9d9db9" stroke-width="1.51"/><path d="M1246,-109L1306,-17L1327,-138Z" fill="#8c8898" stroke="#8c8898" stroke-width="1.51"/><path d="M1312,60L1324,113L1327,-138Z" fill="#7b818d" stroke="#7b818d" stroke-width="1.51"/><path d="M1306,-17L1312,60L1327,-138Z" fill="#84838e" stroke="#84838e" stroke-width="1.51"/><path d="M1258,316L1296,378L1331,272Z" fill="#275e96" stroke="#275e96" stroke-width="1.51"/><path d="M1324,113L1308,207L1331,272Z" fill="#436e91" stroke="#436e91" stroke-width="1.51"/><path d="M1327,-138L1324,113L1331,272Z" fill="#687a8d" stroke="#687a8d" stroke-width="1.51"/><path d="M1230,453L1320,535L1341,465Z" fill="#1c3a86" stroke="#1c3a86" stroke-width="1.51"/><path d="M1296,378L1230,453L1341,465Z" fill="#1e458c" stroke="#1e458c" stroke-width="1.51"/><path d="M1331,272L1296,378L1341,465Z" fill="#1e528e" stroke="#1e528e" stroke-width="1.51"/><path d="M1320,535L1325,621L1341,465Z" fill="#192c7c" stroke="#192c7c" stroke-width="1.51"/><path d="M1327,-138L1331,272L1341,465Z" fill="#416c8f" stroke="#416c8f" stroke-width="1.51"/><path d="M1230,453L1240,546L1320,535Z" fill="#1f3689" stroke="#1f3689" stroke-width="1.51"/><path d="M1269,214L1308,207L1324,113Z" fill="#4a7194" stroke="#4a7194" stroke-width="1.51"/><path d="M1214,123L1269,214L1324,113Z" fill="#547698" stroke="#547698" stroke-width="1.51"/><path d="M1308,207L1269,214L1331,272Z" fill="#3a6b96" stroke="#3a6b96" stroke-width="1.51"/><path d="M1269,214L1258,316L1331,272Z" fill="#316899" stroke="#316899" stroke-width="1.51"/><path d="M1312,60L1250,74L1324,113Z" fill="#6b7c92" stroke="#6b7c92" stroke-width="1.51"/><path d="M1306,-17L1250,74L1312,60Z" fill="#798193" stroke="#798193" stroke-width="1.51"/><path d="M1250,74L1214,123L1324,113Z" fill="#677c98" stroke="#677c98" stroke-width="1.51"/><path d="M1240,546L1267,594L1320,535Z" fill="#1c2c80" stroke="#1c2c80" stroke-width="1.51"/><path d="M1246,-109L1216,-37L1306,-17Z" fill="#8e8998" stroke="#8e8998" stroke-width="1.51"/><path d="M1231,378L1230,453L1296,378Z" fill="#224f96" stroke="#224f96" stroke-width="1.51"/><path d="M1216,-37L1250,74L1306,-17Z" fill="#838598" stroke="#838598" stroke-width="1.51"/><path d="M1258,316L1231,378L1296,378Z" fill="#235a99" stroke="#235a99" stroke-width="1.51"/><path d="M1216,-37L1172,56L1250,74Z" fill="#83889f" stroke="#83889f" stroke-width="1.51"/><path d="M1214,123L1160,226L1269,214Z" fill="#4f76a3" stroke="#4f76a3" stroke-width="1.51"/><path d="M1160,226L1182,260L1269,214Z" fill="#4273a6" stroke="#4273a6" stroke-width="1.51"/><path d="M1182,260L1258,316L1269,214Z" fill="#376ca1" stroke="#376ca1" stroke-width="1.51"/><path d="M1240,546L1133,627L1267,594Z" fill="#1c2d81" stroke="#1c2d81" stroke-width="1.51"/><path d="M1147,154L1160,226L1214,123Z" fill="#587ca9" stroke="#587ca9" stroke-width="1.51"/><path d="M1230,453L1174,469L1240,546Z" fill="#223e92" stroke="#223e92" stroke-width="1.51"/><path d="M1182,260L1231,378L1258,316Z" fill="#2e64a2" stroke="#2e64a2" stroke-width="1.51"/><path d="M1176,389L1230,453L1231,378Z" fill="#26519c" stroke="#26519c" stroke-width="1.51"/><path d="M1182,260L1176,389L1231,378Z" fill="#2b62a5" stroke="#2b62a5" stroke-width="1.51"/><path d="M1143,-89L1216,-37L1246,-109Z" fill="#958ea6" stroke="#958ea6" stroke-width="1.51"/><path d="M1172,56L1214,123L1250,74Z" fill="#7382a0" stroke="#7382a0" stroke-width="1.51"/><path d="M1174,469L1147,500L1240,546Z" fill="#243d95" stroke="#243d95" stroke-width="1.51"/><path d="M1147,500L1133,627L1240,546Z" fill="#233391" stroke="#233391" stroke-width="1.51"/><path d="M1143,-89L1156,-44L1216,-37Z" fill="#9790a7" stroke="#9790a7" stroke-width="1.51"/><path d="M1156,-44L1172,56L1216,-37Z" fill="#8d8da4" stroke="#8d8da4" stroke-width="1.51"/><path d="M1176,389L1174,469L1230,453Z" fill="#254b9b" stroke="#254b9b" stroke-width="1.51"/><path d="M1083,298L1082,351L1176,389Z" fill="#2b69ad" stroke="#2b69ad" stroke-width="1.51"/><path d="M1083,298L1176,389L1182,260Z" fill="#336bac" stroke="#336bac" stroke-width="1.51"/><path d="M1172,56L1147,154L1214,123Z" fill="#6c82a6" stroke="#6c82a6" stroke-width="1.51"/><path d="M990,593L924,615L1097,615Z" fill="#1d408b" stroke="#1d408b" stroke-width="1.51"/><path d="M1083,537L1097,615L1133,627Z" fill="#20368a" stroke="#20368a" stroke-width="1.51"/><path d="M1083,537L1133,627L1147,500Z" fill="#253995" stroke="#253995" stroke-width="1.51"/><path d="M1156,-44L1071,-6L1172,56Z" fill="#8d91a8" stroke="#8d91a8" stroke-width="1.51"/><path d="M1071,-6L1101,72L1172,56Z" fill="#8690aa" stroke="#8690aa" stroke-width="1.51"/><path d="M1101,72L1147,154L1172,56Z" fill="#7488a9" stroke="#7488a9" stroke-width="1.51"/><path d="M1067,461L1174,469L1176,389Z" fill="#274fa1" stroke="#274fa1" stroke-width="1.51"/><path d="M1160,226L1094,238L1182,260Z" fill="#4178ae" stroke="#4178ae" stroke-width="1.51"/><path d="M1094,238L1083,298L1182,260Z" fill="#3b76ae" stroke="#3b76ae" stroke-width="1.51"/><path d="M1067,461L1147,500L1174,469Z" fill="#26489e" stroke="#26489e" stroke-width="1.51"/><path d="M1082,351L1067,461L1176,389Z" fill="#285ca8" stroke="#285ca8" stroke-width="1.51"/><path d="M1101,72L1072,109L1147,154Z" fill="#6d8aab" stroke="#6d8aab" stroke-width="1.51"/><path d="M1147,154L1094,238L1160,226Z" fill="#4d7cad" stroke="#4d7cad" stroke-width="1.51"/><path d="M1143,-89L1080,-99L1156,-44Z" fill="#9996ad" stroke="#9996ad" stroke-width="1.51"/><path d="M1080,-99L1071,-6L1156,-44Z" fill="#9898a9" stroke="#9898a9" stroke-width="1.51"/><path d="M1067,461L1083,537L1147,500Z" fill="#26479c" stroke="#26479c" stroke-width="1.51"/><path d="M1072,109L1094,238L1147,154Z" fill="#5884ad" stroke="#5884ad" stroke-width="1.51"/><path d="M1072,109L1006,146L1094,238Z" fill="#5889af" stroke="#5889af" stroke-width="1.51"/><path d="M1018,-27L1071,-6L1080,-99Z" fill="#979dac" stroke="#979dac" stroke-width="1.51"/><path d="M994,366L1067,461L1082,351Z" fill="#2665ac" stroke="#2665ac" stroke-width="1.51"/><path d="M1006,146L976,203L1094,238Z" fill="#4e89b2" stroke="#4e89b2" stroke-width="1.51"/><path d="M1018,271L1083,298L1094,238Z" fill="#387cb1" stroke="#387cb1" stroke-width="1.51"/><path d="M1083,537L990,593L1097,615Z" fill="#213d90" stroke="#213d90" stroke-width="1.51"/><path d="M985,72L1072,109L1101,72Z" fill="#7793ad" stroke="#7793ad" stroke-width="1.51"/><path d="M1071,-6L985,72L1101,72Z" fill="#8598ac" stroke="#8598ac" stroke-width="1.51"/><path d="M976,203L1018,271L1094,238Z" fill="#3f85b3" stroke="#3f85b3" stroke-width="1.51"/><path d="M994,366L988,451L1067,461Z" fill="#2460a9" stroke="#2460a9" stroke-width="1.51"/><path d="M1018,-27L985,72L1071,-6Z" fill="#8b9dae" stroke="#8b9dae" stroke-width="1.51"/><path d="M1018,271L994,366L1082,351Z" fill="#2b76b2" stroke="#2b76b2" stroke-width="1.51"/><path d="M1018,271L1082,351L1083,298Z" fill="#3176b1" stroke="#3176b1" stroke-width="1.51"/><path d="M1067,461L989,546L1083,537Z" fill="#26499e" stroke="#26499e" stroke-width="1.51"/><path d="M989,546L990,593L1083,537Z" fill="#254499" stroke="#254499" stroke-width="1.51"/><path d="M988,451L989,546L1067,461Z" fill="#2553a3" stroke="#2553a3" stroke-width="1.51"/><path d="M971,-123L1018,-27L1080,-99Z" fill="#9aa3b3" stroke="#9aa3b3" stroke-width="1.51"/><path d="M985,72L1006,146L1072,109Z" fill="#6d94af" stroke="#6d94af" stroke-width="1.51"/><path d="M756,-129L833,-109L946,-131Z" fill="#a0bdc5" stroke="#a0bdc5" stroke-width="1.51"/><path d="M988,451L929,512L989,546Z" fill="#2555a3" stroke="#2555a3" stroke-width="1.51"/><path d="M900,261L994,366L1018,271Z" fill="#2f81b6" stroke="#2f81b6" stroke-width="1.51"/><path d="M976,203L900,261L1018,271Z" fill="#3a8cb7" stroke="#3a8cb7" stroke-width="1.51"/><path d="M971,-123L935,-27L1018,-27Z" fill="#99a8b2" stroke="#99a8b2" stroke-width="1.51"/><path d="M935,53L985,72L1018,-27Z" fill="#87a2b0" stroke="#87a2b0" stroke-width="1.51"/><path d="M935,-27L935,53L1018,-27Z" fill="#8ea7b1" stroke="#8ea7b1" stroke-width="1.51"/><path d="M900,261L890,365L994,366Z" fill="#2782b8" stroke="#2782b8" stroke-width="1.51"/><path d="M934,449L988,451L994,366Z" fill="#2366ac" stroke="#2366ac" stroke-width="1.51"/><path d="M985,72L892,142L1006,146Z" fill="#699ab3" stroke="#699ab3" stroke-width="1.51"/><path d="M892,142L976,203L1006,146Z" fill="#5795b4" stroke="#5795b4" stroke-width="1.51"/><path d="M946,-131L935,-27L971,-123Z" fill="#9cadb9" stroke="#9cadb9" stroke-width="1.51"/><path d="M892,142L903,192L976,203Z" fill="#5298b7" stroke="#5298b7" stroke-width="1.51"/><path d="M935,53L892,142L985,72Z" fill="#75a1b3" stroke="#75a1b3" stroke-width="1.51"/><path d="M934,449L929,512L988,451Z" fill="#245da8" stroke="#245da8" stroke-width="1.51"/><path d="M989,546L924,615L990,593Z" fill="#214694" stroke="#214694" stroke-width="1.51"/><path d="M890,365L934,449L994,366Z" fill="#2372b2" stroke="#2372b2" stroke-width="1.51"/><path d="M929,512L924,615L989,546Z" fill="#264d9d" stroke="#264d9d" stroke-width="1.51"/><path d="M903,192L900,261L976,203Z" fill="#4494b8" stroke="#4494b8" stroke-width="1.51"/><path d="M860,314L890,365L900,261Z" fill="#2a8bbb" stroke="#2a8bbb" stroke-width="1.51"/><path d="M862,581L742,635L924,615Z" fill="#215393" stroke="#215393" stroke-width="1.51"/><path d="M862,581L924,615L929,512Z" fill="#25509c" stroke="#25509c" stroke-width="1.51"/><path d="M861,33L935,53L935,-27Z" fill="#8cacb4" stroke="#8cacb4" stroke-width="1.51"/><path d="M833,-109L935,-27L946,-131Z" fill="#9db3bb" stroke="#9db3bb" stroke-width="1.51"/><path d="M861,33L830,114L892,142Z" fill="#74abb8" stroke="#74abb8" stroke-width="1.51"/><path d="M837,450L832,515L929,512Z" fill="#2764ab" stroke="#2764ab" stroke-width="1.51"/><path d="M837,450L929,512L934,449Z" fill="#2564ab" stroke="#2564ab" stroke-width="1.51"/><path d="M890,365L837,450L934,449Z" fill="#2371b2" stroke="#2371b2" stroke-width="1.51"/><path d="M861,33L892,142L935,53Z" fill="#7ba9b6" stroke="#7ba9b6" stroke-width="1.51"/><path d="M831,-1L861,33L935,-27Z" fill="#90b3b6" stroke="#90b3b6" stroke-width="1.51"/><path d="M833,-109L831,-1L935,-27Z" fill="#9ab7b6" stroke="#9ab7b6" stroke-width="1.51"/><path d="M832,515L862,581L929,512Z" fill="#2a5aa6" stroke="#2a5aa6" stroke-width="1.51"/><path d="M851,236L900,261L903,192Z" fill="#3f98bb" stroke="#3f98bb" stroke-width="1.51"/><path d="M831,372L837,450L890,365Z" fill="#237cb7" stroke="#237cb7" stroke-width="1.51"/><path d="M892,142L851,236L903,192Z" fill="#4e9dba" stroke="#4e9dba" stroke-width="1.51"/><path d="M830,114L784,205L851,236Z" fill="#4fa6bd" stroke="#4fa6bd" stroke-width="1.51"/><path d="M830,114L851,236L892,142Z" fill="#56a4ba" stroke="#56a4ba" stroke-width="1.51"/><path d="M851,236L860,314L900,261Z" fill="#3294bd" stroke="#3294bd" stroke-width="1.51"/><path d="M860,314L831,372L890,365Z" fill="#2087bc" stroke="#2087bc" stroke-width="1.51"/><path d="M775,-45L831,-1L833,-109Z" fill="#9cc0ba" stroke="#9cc0ba" stroke-width="1.51"/><path d="M851,236L778,293L860,314Z" fill="#2f98bf" stroke="#2f98bf" stroke-width="1.51"/><path d="M831,-1L760,66L861,33Z" fill="#8bb9ba" stroke="#8bb9ba" stroke-width="1.51"/><path d="M760,66L830,114L861,33Z" fill="#7eb5bb" stroke="#7eb5bb" stroke-width="1.51"/><path d="M832,515L787,556L862,581Z" fill="#2b5da8" stroke="#2b5da8" stroke-width="1.51"/><path d="M787,556L742,635L862,581Z" fill="#255b9d" stroke="#255b9d" stroke-width="1.51"/><path d="M778,293L831,372L860,314Z" fill="#2591bf" stroke="#2591bf" stroke-width="1.51"/><path d="M831,372L782,379L837,450Z" fill="#2280b9" stroke="#2280b9" stroke-width="1.51"/><path d="M783,476L832,515L837,450Z" fill="#276db0" stroke="#276db0" stroke-width="1.51"/><path d="M784,205L778,293L851,236Z" fill="#36a2c1" stroke="#36a2c1" stroke-width="1.51"/><path d="M751,114L784,205L830,114Z" fill="#5eafbe" stroke="#5eafbe" stroke-width="1.51"/><path d="M778,293L782,379L831,372Z" fill="#1e90c0" stroke="#1e90c0" stroke-width="1.51"/><path d="M782,379L783,476L837,450Z" fill="#237ab6" stroke="#237ab6" stroke-width="1.51"/><path d="M760,66L751,114L830,114Z" fill="#74b7bd" stroke="#74b7bd" stroke-width="1.51"/><path d="M756,-129L775,-45L833,-109Z" fill="#a0c4c3" stroke="#a0c4c3" stroke-width="1.51"/><path d="M527,611L341,635L617,636Z" fill="#446e92" stroke="#446e92" stroke-width="1.51"/><path d="M775,-45L760,66L831,-1Z" fill="#91bfbb" stroke="#91bfbb" stroke-width="1.51"/><path d="M783,476L787,556L832,515Z" fill="#2968ad" stroke="#2968ad" stroke-width="1.51"/><path d="M691,30L760,66L775,-45Z" fill="#91c3bb" stroke="#91c3bb" stroke-width="1.51"/><path d="M663,181L670,319L778,293Z" fill="#37a9c3" stroke="#37a9c3" stroke-width="1.51"/><path d="M778,293L670,319L782,379Z" fill="#2899c1" stroke="#2899c1" stroke-width="1.51"/><path d="M651,363L656,470L782,379Z" fill="#2d8cbb" stroke="#2d8cbb" stroke-width="1.51"/><path d="M659,534L702,582L783,476Z" fill="#336dad" stroke="#336dad" stroke-width="1.51"/><path d="M656,470L659,534L783,476Z" fill="#3276b1" stroke="#3276b1" stroke-width="1.51"/><path d="M782,379L656,470L783,476Z" fill="#2a7eb6" stroke="#2a7eb6" stroke-width="1.51"/><path d="M663,181L778,293L784,205Z" fill="#42aac2" stroke="#42aac2" stroke-width="1.51"/><path d="M751,114L663,181L784,205Z" fill="#58b2bf" stroke="#58b2bf" stroke-width="1.51"/><path d="M783,476L702,582L787,556Z" fill="#2f67ac" stroke="#2f67ac" stroke-width="1.51"/><path d="M702,582L742,635L787,556Z" fill="#2a619e" stroke="#2a619e" stroke-width="1.51"/><path d="M670,319L651,363L782,379Z" fill="#2998c1" stroke="#2998c1" stroke-width="1.51"/><path d="M756,-129L660,-30L775,-45Z" fill="#a1c9be" stroke="#a1c9be" stroke-width="1.51"/><path d="M660,-30L691,30L775,-45Z" fill="#99c9bb" stroke="#99c9bb" stroke-width="1.51"/><path d="M-61,588L-117,588L194,636Z" fill="#8d8897" stroke="#8d8897" stroke-width="1.51"/><path d="M673,112L663,181L751,114Z" fill="#67babe" stroke="#67babe" stroke-width="1.51"/><path d="M652,-131L660,-30L756,-129Z" fill="#a5cfc4" stroke="#a5cfc4" stroke-width="1.51"/><path d="M673,112L751,114L760,66Z" fill="#76bcbd" stroke="#76bcbd" stroke-width="1.51"/><path d="M691,30L673,112L760,66Z" fill="#83c2bc" stroke="#83c2bc" stroke-width="1.51"/><path d="M663,181L608,231L670,319Z" fill="#40b2c3" stroke="#40b2c3" stroke-width="1.51"/><path d="M702,582L617,636L742,635Z" fill="#2c6296" stroke="#2c6296" stroke-width="1.51"/><path d="M65,601L-61,588L194,636Z" fill="#888693" stroke="#888693" stroke-width="1.51"/><path d="M431,605L341,635L527,611Z" fill="#4f7294" stroke="#4f7294" stroke-width="1.51"/><path d="M611,-82L626,-45L652,-131Z" fill="#a7d5c2" stroke="#a7d5c2" stroke-width="1.51"/><path d="M651,363L612,434L656,470Z" fill="#338cb9" stroke="#338cb9" stroke-width="1.51"/><path d="M652,-131L626,-45L660,-30Z" fill="#a5d2bf" stroke="#a5d2bf" stroke-width="1.51"/><path d="M659,534L617,636L702,582Z" fill="#3469a1" stroke="#3469a1" stroke-width="1.51"/><path d="M593,37L673,112L691,30Z" fill="#8ac8bd" stroke="#8ac8bd" stroke-width="1.51"/><path d="M660,-30L593,37L691,30Z" fill="#96cdbc" stroke="#96cdbc" stroke-width="1.51"/><path d="M589,548L617,636L659,534Z" fill="#396fa5" stroke="#396fa5" stroke-width="1.51"/><path d="M611,344L651,363L670,319Z" fill="#30a0c2" stroke="#30a0c2" stroke-width="1.51"/><path d="M608,231L586,296L670,319Z" fill="#3baec4" stroke="#3baec4" stroke-width="1.51"/><path d="M609,152L663,181L673,112Z" fill="#63bcbf" stroke="#63bcbf" stroke-width="1.51"/><path d="M593,37L609,152L673,112Z" fill="#7ac6be" stroke="#7ac6be" stroke-width="1.51"/><path d="M626,-45L593,37L660,-30Z" fill="#9cd1bc" stroke="#9cd1bc" stroke-width="1.51"/><path d="M586,296L611,344L670,319Z" fill="#35a7c3" stroke="#35a7c3" stroke-width="1.51"/><path d="M656,470L589,548L659,534Z" fill="#3a77af" stroke="#3a77af" stroke-width="1.51"/><path d="M609,152L608,231L663,181Z" fill="#57bac1" stroke="#57bac1" stroke-width="1.51"/><path d="M612,434L589,548L656,470Z" fill="#3880b3" stroke="#3880b3" stroke-width="1.51"/><path d="M611,344L612,434L651,363Z" fill="#3399bf" stroke="#3399bf" stroke-width="1.51"/><path d="M495,-138L611,-82L652,-131Z" fill="#acdac8" stroke="#acdac8" stroke-width="1.51"/><path d="M593,37L533,148L609,152Z" fill="#79c8be" stroke="#79c8be" stroke-width="1.51"/><path d="M527,361L538,428L611,344Z" fill="#3f9fbe" stroke="#3f9fbe" stroke-width="1.51"/><path d="M611,344L538,428L612,434Z" fill="#3996bc" stroke="#3996bc" stroke-width="1.51"/><path d="M538,428L589,548L612,434Z" fill="#3e86b4" stroke="#3e86b4" stroke-width="1.51"/><path d="M589,548L527,611L617,636Z" fill="#3b6e9c" stroke="#3b6e9c" stroke-width="1.51"/><path d="M611,-82L518,-23L626,-45Z" fill="#a7d8bb" stroke="#a7d8bb" stroke-width="1.51"/><path d="M518,-23L593,37L626,-45Z" fill="#9fd5bb" stroke="#9fd5bb" stroke-width="1.51"/><path d="M499,57L533,148L593,37Z" fill="#8bcebc" stroke="#8bcebc" stroke-width="1.51"/><path d="M533,148L529,235L608,231Z" fill="#5bbdc1" stroke="#5bbdc1" stroke-width="1.51"/><path d="M533,148L608,231L609,152Z" fill="#5fbfc1" stroke="#5fbfc1" stroke-width="1.51"/><path d="M529,235L586,296L608,231Z" fill="#46b6c4" stroke="#46b6c4" stroke-width="1.51"/><path d="M586,296L527,361L611,344Z" fill="#3ca8c2" stroke="#3ca8c2" stroke-width="1.51"/><path d="M495,-138L518,-23L611,-82Z" fill="#aedbc0" stroke="#aedbc0" stroke-width="1.51"/><path d="M529,235L529,287L586,296Z" fill="#4ab4c3" stroke="#4ab4c3" stroke-width="1.51"/><path d="M529,287L527,361L586,296Z" fill="#44adc2" stroke="#44adc2" stroke-width="1.51"/><path d="M538,428L492,556L589,548Z" fill="#487faf" stroke="#487faf" stroke-width="1.51"/><path d="M518,-23L499,57L593,37Z" fill="#9dd5bb" stroke="#9dd5bb" stroke-width="1.51"/><path d="M492,556L527,611L589,548Z" fill="#4774a5" stroke="#4774a5" stroke-width="1.51"/><path d="M463,434L434,517L492,556Z" fill="#5585af" stroke="#5585af" stroke-width="1.51"/><path d="M387,-127L454,-120L495,-138Z" fill="#bce3c7" stroke="#bce3c7" stroke-width="1.51"/><path d="M495,-138L454,-120L518,-23Z" fill="#b5dfc1" stroke="#b5dfc1" stroke-width="1.51"/><path d="M466,26L499,57L518,-23Z" fill="#a3d8b9" stroke="#a3d8b9" stroke-width="1.51"/><path d="M438,359L527,361L529,287Z" fill="#4dacc0" stroke="#4dacc0" stroke-width="1.51"/><path d="M499,57L460,100L533,148Z" fill="#88cebc" stroke="#88cebc" stroke-width="1.51"/><path d="M444,224L529,235L533,148Z" fill="#64c1c0" stroke="#64c1c0" stroke-width="1.51"/><path d="M527,361L463,434L538,428Z" fill="#4a99b9" stroke="#4a99b9" stroke-width="1.51"/><path d="M463,434L492,556L538,428Z" fill="#4e8ab2" stroke="#4e8ab2" stroke-width="1.51"/><path d="M438,359L463,434L527,361Z" fill="#50a1bb" stroke="#50a1bb" stroke-width="1.51"/><path d="M444,224L529,287L529,235Z" fill="#56bcc2" stroke="#56bcc2" stroke-width="1.51"/><path d="M460,100L444,224L533,148Z" fill="#74c8bd" stroke="#74c8bd" stroke-width="1.51"/><path d="M454,-120L422,-23L518,-23Z" fill="#b4dfb9" stroke="#b4dfb9" stroke-width="1.51"/><path d="M444,224L412,261L529,287Z" fill="#5bbdc1" stroke="#5bbdc1" stroke-width="1.51"/><path d="M412,261L438,359L529,287Z" fill="#57b4c0" stroke="#57b4c0" stroke-width="1.51"/><path d="M492,556L431,605L527,611Z" fill="#4c749d" stroke="#4c749d" stroke-width="1.51"/><path d="M422,-23L466,26L518,-23Z" fill="#abdbb8" stroke="#abdbb8" stroke-width="1.51"/><path d="M466,26L460,100L499,57Z" fill="#9ad5ba" stroke="#9ad5ba" stroke-width="1.51"/><path d="M367,192L444,224L460,100Z" fill="#78c9bd" stroke="#78c9bd" stroke-width="1.51"/><path d="M434,517L431,605L492,556Z" fill="#567aa7" stroke="#567aa7" stroke-width="1.51"/><path d="M412,261L372,292L438,359Z" fill="#60b7bf" stroke="#60b7bf" stroke-width="1.51"/><path d="M387,-127L422,-23L454,-120Z" fill="#bce3bf" stroke="#bce3bf" stroke-width="1.51"/><path d="M337,137L367,192L460,100Z" fill="#87cfbb" stroke="#87cfbb" stroke-width="1.51"/><path d="M347,430L434,517L463,434Z" fill="#5a91b1" stroke="#5a91b1" stroke-width="1.51"/><path d="M438,359L383,368L463,434Z" fill="#58a4ba" stroke="#58a4ba" stroke-width="1.51"/><path d="M335,55L460,100L466,26Z" fill="#a0d9b9" stroke="#a0d9b9" stroke-width="1.51"/><path d="M422,-23L335,55L466,26Z" fill="#acddb7" stroke="#acddb7" stroke-width="1.51"/><path d="M383,368L347,430L463,434Z" fill="#5e9fb7" stroke="#5e9fb7" stroke-width="1.51"/><path d="M335,55L337,137L460,100Z" fill="#9ad7b9" stroke="#9ad7b9" stroke-width="1.51"/><path d="M364,-26L335,55L422,-23Z" fill="#b5e1b7" stroke="#b5e1b7" stroke-width="1.51"/><path d="M387,-127L364,-26L422,-23Z" fill="#bee4b7" stroke="#bee4b7" stroke-width="1.51"/><path d="M347,532L431,605L434,517Z" fill="#5f7ea8" stroke="#5f7ea8" stroke-width="1.51"/><path d="M347,430L347,532L434,517Z" fill="#648cae" stroke="#648cae" stroke-width="1.51"/><path d="M372,292L383,368L438,359Z" fill="#5fb1be" stroke="#5fb1be" stroke-width="1.51"/><path d="M367,192L412,261L444,224Z" fill="#6cc4bf" stroke="#6cc4bf" stroke-width="1.51"/><path d="M347,532L341,635L431,605Z" fill="#5e7a9c" stroke="#5e7a9c" stroke-width="1.51"/><path d="M367,192L372,292L412,261Z" fill="#6bc3bf" stroke="#6bc3bf" stroke-width="1.51"/><path d="M347,430L301,441L347,532Z" fill="#6d95af" stroke="#6d95af" stroke-width="1.51"/><path d="M265,225L300,297L367,192Z" fill="#7fcabe" stroke="#7fcabe" stroke-width="1.51"/><path d="M367,192L300,297L372,292Z" fill="#73c4bf" stroke="#73c4bf" stroke-width="1.51"/><path d="M372,292L308,347L383,368Z" fill="#6ab5be" stroke="#6ab5be" stroke-width="1.51"/><path d="M260,-45L364,-26L387,-127Z" fill="#c8e8b8" stroke="#c8e8b8" stroke-width="1.51"/><path d="M252,-123L260,-45L387,-127Z" fill="#d1ecbe" stroke="#d1ecbe" stroke-width="1.51"/><path d="M308,347L347,430L383,368Z" fill="#6baab9" stroke="#6baab9" stroke-width="1.51"/><path d="M284,550L341,635L347,532Z" fill="#6c80a1" stroke="#6c80a1" stroke-width="1.51"/><path d="M300,297L308,347L372,292Z" fill="#73bbbe" stroke="#73bbbe" stroke-width="1.51"/><path d="M335,55L300,131L337,137Z" fill="#a1d9b8" stroke="#a1d9b8" stroke-width="1.51"/><path d="M260,-45L335,55L364,-26Z" fill="#c0e5b5" stroke="#c0e5b5" stroke-width="1.51"/><path d="M337,137L300,131L367,192Z" fill="#8ed2ba" stroke="#8ed2ba" stroke-width="1.51"/><path d="M300,131L265,225L367,192Z" fill="#8cd0bb" stroke="#8cd0bb" stroke-width="1.51"/><path d="M260,-45L262,51L335,55Z" fill="#c1e6b5" stroke="#c1e6b5" stroke-width="1.51"/><path d="M284,550L257,635L341,635Z" fill="#6b7d95" stroke="#6b7d95" stroke-width="1.51"/><path d="M308,347L301,441L347,430Z" fill="#71a5b7" stroke="#71a5b7" stroke-width="1.51"/><path d="M301,441L284,550L347,532Z" fill="#728eac" stroke="#728eac" stroke-width="1.51"/><path d="M262,51L300,131L335,55Z" fill="#b0dfb7" stroke="#b0dfb7" stroke-width="1.51"/><path d="M200,424L178,534L284,550Z" fill="#8494ab" stroke="#8494ab" stroke-width="1.51"/><path d="M185,143L265,225L300,131Z" fill="#9cd7b9" stroke="#9cd7b9" stroke-width="1.51"/><path d="M200,424L284,550L301,441Z" fill="#7b99af" stroke="#7b99af" stroke-width="1.51"/><path d="M226,369L301,441L308,347Z" fill="#7aaeb8" stroke="#7aaeb8" stroke-width="1.51"/><path d="M300,297L226,369L308,347Z" fill="#7cbabc" stroke="#7cbabc" stroke-width="1.51"/><path d="M262,51L185,143L300,131Z" fill="#aedfb7" stroke="#aedfb7" stroke-width="1.51"/><path d="M265,225L174,289L300,297Z" fill="#89c9bd" stroke="#89c9bd" stroke-width="1.51"/><path d="M226,369L200,424L301,441Z" fill="#80a9b5" stroke="#80a9b5" stroke-width="1.51"/><path d="M174,289L226,369L300,297Z" fill="#87c1bc" stroke="#87c1bc" stroke-width="1.51"/><path d="M178,534L194,636L257,635Z" fill="#7a8396" stroke="#7a8396" stroke-width="1.51"/><path d="M216,42L185,143L262,51Z" fill="#bee5b5" stroke="#bee5b5" stroke-width="1.51"/><path d="M260,-45L216,42L262,51Z" fill="#c9e9b4" stroke="#c9e9b4" stroke-width="1.51"/><path d="M178,534L257,635L284,550Z" fill="#7b85a0" stroke="#7b85a0" stroke-width="1.51"/><path d="M97,-135L195,-95L252,-123Z" fill="#e4f5bf" stroke="#e4f5bf" stroke-width="1.51"/><path d="M186,-54L216,42L260,-45Z" fill="#d4eeb3" stroke="#d4eeb3" stroke-width="1.51"/><path d="M252,-123L195,-95L260,-45Z" fill="#dbf1ba" stroke="#dbf1ba" stroke-width="1.51"/><path d="M195,-95L186,-54L260,-45Z" fill="#dcf1b6" stroke="#dcf1b6" stroke-width="1.51"/><path d="M182,221L174,289L265,225Z" fill="#92d0bd" stroke="#92d0bd" stroke-width="1.51"/><path d="M185,143L182,221L265,225Z" fill="#9dd6ba" stroke="#9dd6ba" stroke-width="1.51"/><path d="M178,534L142,590L194,636Z" fill="#81869a" stroke="#81869a" stroke-width="1.51"/><path d="M126,468L178,534L200,424Z" fill="#8a9cad" stroke="#8a9cad" stroke-width="1.51"/><path d="M186,-54L134,49L216,42Z" fill="#d3edb3" stroke="#d3edb3" stroke-width="1.51"/><path d="M134,49L185,143L216,42Z" fill="#c2e6b5" stroke="#c2e6b5" stroke-width="1.51"/><path d="M136,360L200,424L226,369Z" fill="#8ab3b8" stroke="#8ab3b8" stroke-width="1.51"/><path d="M174,289L136,360L226,369Z" fill="#8cbfbb" stroke="#8cbfbb" stroke-width="1.51"/><path d="M134,49L116,121L185,143Z" fill="#bde4b6" stroke="#bde4b6" stroke-width="1.51"/><path d="M105,-3L134,49L186,-54Z" fill="#d9f0b3" stroke="#d9f0b3" stroke-width="1.51"/><path d="M144,224L174,289L182,221Z" fill="#97d2bc" stroke="#97d2bc" stroke-width="1.51"/><path d="M144,224L182,221L185,143Z" fill="#a1d7b9" stroke="#a1d7b9" stroke-width="1.51"/><path d="M142,590L65,601L194,636Z" fill="#818494" stroke="#818494" stroke-width="1.51"/><path d="M136,360L126,468L200,424Z" fill="#8cabb4" stroke="#8cabb4" stroke-width="1.51"/><path d="M97,-135L186,-54L195,-95Z" fill="#e4f5bb" stroke="#e4f5bb" stroke-width="1.51"/><path d="M144,224L112,263L174,289Z" fill="#98d1bc" stroke="#98d1bc" stroke-width="1.51"/><path d="M116,121L144,224L185,143Z" fill="#abdcb8" stroke="#abdcb8" stroke-width="1.51"/><path d="M62,-38L105,-3L186,-54Z" fill="#e1f3b2" stroke="#e1f3b2" stroke-width="1.51"/><path d="M97,-135L62,-38L186,-54Z" fill="#e7f6b6" stroke="#e7f6b6" stroke-width="1.51"/><path d="M126,468L110,539L178,534Z" fill="#8d94aa" stroke="#8d94aa" stroke-width="1.51"/><path d="M110,539L142,590L178,534Z" fill="#8b8ba5" stroke="#8b8ba5" stroke-width="1.51"/><path d="M-49,-124L63,-120L97,-135Z" fill="#f4fac1" stroke="#f4fac1" stroke-width="1.51"/><path d="M112,263L136,360L174,289Z" fill="#94c8bc" stroke="#94c8bc" stroke-width="1.51"/><path d="M63,-120L62,-38L97,-135Z" fill="#edf8bb" stroke="#edf8bb" stroke-width="1.51"/><path d="M48,362L55,476L126,468Z" fill="#94a9b2" stroke="#94a9b2" stroke-width="1.51"/><path d="M61,68L116,121L134,49Z" fill="#c9e9b4" stroke="#c9e9b4" stroke-width="1.51"/><path d="M112,263L43,301L136,360Z" fill="#99c8bb" stroke="#99c8bb" stroke-width="1.51"/><path d="M43,301L48,362L136,360Z" fill="#98c3bb" stroke="#98c3bb" stroke-width="1.51"/><path d="M48,362L126,468L136,360Z" fill="#93b3b6" stroke="#93b3b6" stroke-width="1.51"/><path d="M116,121L29,188L144,224Z" fill="#adddb8" stroke="#adddb8" stroke-width="1.51"/><path d="M29,188L112,263L144,224Z" fill="#a3d7bb" stroke="#a3d7bb" stroke-width="1.51"/><path d="M110,539L65,601L142,590Z" fill="#8a8a9d" stroke="#8a8a9d" stroke-width="1.51"/><path d="M55,476L110,539L126,468Z" fill="#919bab" stroke="#919bab" stroke-width="1.51"/><path d="M105,-3L61,68L134,49Z" fill="#d6efb3" stroke="#d6efb3" stroke-width="1.51"/><path d="M59,549L65,601L110,539Z" fill="#908ca2" stroke="#908ca2" stroke-width="1.51"/><path d="M27,138L29,188L116,121Z" fill="#b7e1b6" stroke="#b7e1b6" stroke-width="1.51"/><path d="M55,476L59,549L110,539Z" fill="#9395a9" stroke="#9395a9" stroke-width="1.51"/><path d="M61,68L27,138L116,121Z" fill="#c4e6b5" stroke="#c4e6b5" stroke-width="1.51"/><path d="M29,188L43,301L112,263Z" fill="#a2d6bc" stroke="#a2d6bc" stroke-width="1.51"/><path d="M62,-38L61,68L105,-3Z" fill="#def2b3" stroke="#def2b3" stroke-width="1.51"/><path d="M29,188L-50,223L43,301Z" fill="#a9d9bd" stroke="#a9d9bd" stroke-width="1.51"/><path d="M48,362L-40,449L55,476Z" fill="#9aadb3" stroke="#9aadb3" stroke-width="1.51"/><path d="M55,476L-33,528L59,549Z" fill="#9797a9" stroke="#9797a9" stroke-width="1.51"/><path d="M-33,528L-61,588L59,549Z" fill="#9790a9" stroke="#9790a9" stroke-width="1.51"/><path d="M-16,129L27,138L61,68Z" fill="#c7e8b5" stroke="#c7e8b5" stroke-width="1.51"/><path d="M-57,21L61,68L62,-38Z" fill="#e1f3b3" stroke="#e1f3b3" stroke-width="1.51"/><path d="M-33,-48L-57,21L62,-38Z" fill="#eaf7b5" stroke="#eaf7b5" stroke-width="1.51"/><path d="M-33,-48L62,-38L63,-120Z" fill="#eff9b5" stroke="#eff9b5" stroke-width="1.51"/><path d="M-49,-124L-33,-48L63,-120Z" fill="#f4fabf" stroke="#f4fabf" stroke-width="1.51"/><path d="M59,549L-61,588L65,601Z" fill="#928c9e" stroke="#928c9e" stroke-width="1.51"/><path d="M-57,21L-16,129L61,68Z" fill="#d4eeb7" stroke="#d4eeb7" stroke-width="1.51"/><path d="M43,301L-48,313L48,362Z" fill="#a0c8bc" stroke="#a0c8bc" stroke-width="1.51"/><path d="M-40,449L-33,528L55,476Z" fill="#99a0b0" stroke="#99a0b0" stroke-width="1.51"/><path d="M-50,223L-48,313L43,301Z" fill="#a5d2c0" stroke="#a5d2c0" stroke-width="1.51"/><path d="M-66,349L-40,449L48,362Z" fill="#9db9bb" stroke="#9db9bb" stroke-width="1.51"/><path d="M-48,313L-66,349L48,362Z" fill="#9fc5c0" stroke="#9fc5c0" stroke-width="1.51"/><path d="M27,138L-16,129L29,188Z" fill="#bae3b8" stroke="#bae3b8" stroke-width="1.51"/><path d="M-16,129L-50,223L29,188Z" fill="#b6e0bd" stroke="#b6e0bd" stroke-width="1.51"/><path d="M-108,52L-108,103L-57,21Z" fill="#ddf2bf" stroke="#ddf2bf" stroke-width="1.51"/><path d="M-108,103L-50,223L-16,129Z" fill="#bde4c0" stroke="#bde4c0" stroke-width="1.51"/><path d="M-57,21L-108,103L-16,129Z" fill="#d4edbe" stroke="#d4edbe" stroke-width="1.51"/><path d="M-148,389L-112,459L-66,349Z" fill="#9fb8c2" stroke="#9fb8c2" stroke-width="1.51"/><path d="M-108,232L-115,290L-50,223Z" fill="#abd9c8" stroke="#abd9c8" stroke-width="1.51"/><path d="M-108,103L-108,232L-50,223Z" fill="#b7e0c4" stroke="#b7e0c4" stroke-width="1.51"/><path d="M-50,223L-115,290L-48,313Z" fill="#a7d3c5" stroke="#a7d3c5" stroke-width="1.51"/><path d="M-66,349L-112,459L-40,449Z" fill="#9db2bd" stroke="#9db2bd" stroke-width="1.51"/><path d="M-49,-124L-99,-53L-33,-48Z" fill="#f4fbc0" stroke="#f4fbc0" stroke-width="1.51"/><path d="M-99,-53L-57,21L-33,-48Z" fill="#edf8bb" stroke="#edf8bb" stroke-width="1.51"/><path d="M-105,557L-61,588L-33,528Z" fill="#9890ad" stroke="#9890ad" stroke-width="1.51"/><path d="M-40,449L-112,459L-33,528Z" fill="#9ba2b5" stroke="#9ba2b5" stroke-width="1.51"/><path d="M-112,459L-105,557L-33,528Z" fill="#9b9ab4" stroke="#9b9ab4" stroke-width="1.51"/><path d="M-149,-113L-99,-53L-49,-124Z" fill="#f8fcc8" stroke="#f8fcc8" stroke-width="1.51"/><path d="M-115,290L-66,349L-48,313Z" fill="#a3cbc5" stroke="#a3cbc5" stroke-width="1.51"/><path d="M-99,-53L-108,52L-57,21Z" fill="#e8f6be" stroke="#e8f6be" stroke-width="1.51"/><path d="M-105,557L-117,588L-61,588Z" fill="#968ea9" stroke="#968ea9" stroke-width="1.51"/><path d="M-115,290L-148,389L-66,349Z" fill="#a2c7c8" stroke="#a2c7c8" stroke-width="1.51"/><path d="M-149,-113L-108,52L-99,-53Z" fill="#f2fac0" stroke="#f2fac0" stroke-width="1.51"/><path d="M-148,389L-117,588L-112,459Z" fill="#9da3bc" stroke="#9da3bc" stroke-width="1.51"/><path d="M-108,103L-148,389L-108,232Z" fill="#addbca" stroke="#addbca" stroke-width="1.51"/><path d="M-112,459L-117,588L-105,557Z" fill="#9c96b5" stroke="#9c96b5" stroke-width="1.51"/><path d="M-108,52L-149,-113L-108,103Z" fill="#e8f6c2" stroke="#e8f6c2" stroke-width="1.51"/><path d="M-149,-113L-148,389L-108,103Z" fill="#c9e9c6" stroke="#c9e9c6" stroke-width="1.51"/><path d="M-148,389L-115,290L-108,232Z" fill="#a7cfca" stroke="#a7cfca" stroke-width="1.51"/></svg>